<svg width="168" height="316" viewBox="0 0 168 316" fill="none" xmlns="http://www.w3.org/2000/svg">
<path d="M4 201C6.27832 197.065 9.41246 193.544 13.5 191.5" stroke="black" stroke-opacity="0.05" stroke-width="2" stroke-linecap="round" stroke-linejoin="round"/>
<path d="M1 215.5C4.05773 212.531 7.15333 210.074 10.5 207.5" stroke="black" stroke-opacity="0.05" stroke-width="2" stroke-linecap="round" stroke-linejoin="round"/>
<path d="M2.5 223C7.21441 220.24 11.7385 217.409 16 214" stroke="black" stroke-opacity="0.05" stroke-width="2" stroke-linecap="round" stroke-linejoin="round"/>
<path d="M4.5 233C9.18847 228.857 13.8881 224.728 18.5 220.5" stroke="black" stroke-opacity="0.05" stroke-width="2" stroke-linecap="round" stroke-linejoin="round"/>
<path d="M153 1C148.702 6.88633 144.252 12.2474 140.5 18.5" stroke="black" stroke-opacity="0.05" stroke-width="2" stroke-linecap="round" stroke-linejoin="round"/>
<path d="M157.5 7.5C154.447 13.3509 150.245 18.5516 147.5 24.5" stroke="black" stroke-opacity="0.05" stroke-width="2" stroke-linecap="round" stroke-linejoin="round"/>
<path d="M161.5 19.5C158.787 24.3947 156.495 31.005 152.5 35" stroke="black" stroke-opacity="0.05" stroke-width="2" stroke-linecap="round" stroke-linejoin="round"/>
<path d="M165 33.5C156.076 43.858 145.795 53.1527 137.5 64" stroke="black" stroke-opacity="0.05" stroke-width="2" stroke-linecap="round" stroke-linejoin="round"/>
<path d="M140.5 315C134.715 311.982 132.028 308.286 131.555 301.778C131.268 297.834 132.805 292.272 136.611 290.222C139.525 288.653 143.92 290.798 146.194 292.722C148.569 294.732 144.332 291.701 143.777 291.222C140.641 288.519 140 285.455 140 281.444C140 274.987 140.572 269.394 144.111 263.889C147.163 259.14 152.441 254.469 157.444 260.028C159.355 262.151 158.5 266.587 158.5 269.167C158.5 272.513 158.663 275.753 157.75 279C157.126 281.218 157.063 283.227 157 285.5C156.97 286.578 155.273 289.706 156.333 288.5C162.576 281.395 167.111 293.681 166.388 298.556C165.586 303.969 160.133 307.817 155.5 305.5" stroke="black" stroke-opacity="0.05" stroke-width="2" stroke-linecap="round" stroke-linejoin="round"/>
</svg>
