<svg width="125" height="87" viewBox="0 0 125 87" fill="none" xmlns="http://www.w3.org/2000/svg">
<path d="M105.5 38.5C104.382 30.6721 105.815 21.2205 109.278 14.1111C110.236 12.1459 119.706 -4.52942 122.889 3.72221C125.168 9.62932 121.491 18.3743 119.945 24.1389C118.426 29.8002 116.421 35.3183 115 41" stroke="black" stroke-opacity="0.05" stroke-width="2" stroke-linecap="round" stroke-linejoin="round"/>
<path d="M4.00019 55.5C1.64739 58.7351 4.66077 58.3788 4.47242 56.7778C4.28005 55.1427 1.53537 57.2912 2.05575 58.7222C2.78011 60.7142 7.24555 57.5075 5.38908 56.2222C4.01578 55.2715 0.945225 56.5 4.50019 56.5" stroke="black" stroke-opacity="0.05" stroke-width="2" stroke-linecap="round" stroke-linejoin="round"/>
<path d="M28.5007 55.5C28.2355 56.1794 26.8223 58.4445 28.3618 58.4445C30.0323 58.4445 31.6902 57.6154 33.0562 56.7222C35.5596 55.0854 31.3825 54.3965 30.3062 55.5556C27.2466 58.8506 34.8955 58.8949 31.0007 55" stroke="black" stroke-opacity="0.05" stroke-width="2" stroke-linecap="round" stroke-linejoin="round"/>
<path d="M11.5007 78C10.9417 79.8167 9.65979 82.8764 11.7229 84.2778C14.4044 86.0992 19.0837 84.2811 21.6674 83.2222C22.3466 82.9438 26.3425 81.5715 25.9729 80.2778C25.8206 79.7446 25.5007 79.6919 25.5007 79" stroke="black" stroke-opacity="0.05" stroke-width="2" stroke-linecap="round" stroke-linejoin="round"/>
</svg>
