<svg width="107" height="14" viewBox="0 0 107 14" fill="none" xmlns="http://www.w3.org/2000/svg">
<path d="M1 9.90768C4.41351 9.17143 6.88612 6.6312 9.22222 4.15768C9.97022 3.36568 10.9432 2.27155 9.22222 2.43546C5.36371 2.80294 7.12926 7.25119 9.52778 8.3799C10.852 9.00305 18.1184 10.8848 18.4722 8.40768C18.62 7.37345 18.36 7.71214 19.0556 8.40768C20.313 9.66513 22.5352 9.47878 24.1667 9.3799C25.6565 9.28961 26.4242 8.69796 27.3889 7.6299C28.2289 6.69989 28.8165 8.26927 29.5 8.79657C31.9218 10.6649 33.5932 9.68526 33.5 6.79657C33.4513 5.28785 32.9568 3.83179 32.5 2.40768C32.1962 1.46044 31.5319 0.0547684 32.2222 1.90768C33.8671 6.32288 39.0354 10.2051 43 12.4077" stroke="black" stroke-opacity="0.07" stroke-width="2" stroke-linecap="round" stroke-linejoin="round"/>
<path d="M46.5 7.40767C51.9619 6.94772 57.9484 7.79313 63 5.40767C67.2474 3.40195 73.322 3.67392 77.8333 3.40767C87.2169 2.85389 96.6051 2.90767 106 2.90767" stroke="black" stroke-opacity="0.07" stroke-width="2" stroke-linecap="round" stroke-linejoin="round"/>
</svg>
