<svg width="167" height="209" viewBox="0 0 167 209" fill="none" xmlns="http://www.w3.org/2000/svg">
<path d="M27.001 2.00001C23.4418 1.61072 20.4312 1.91947 17.001 2.8889C15.0134 3.45058 12.3329 3.41738 10.501 4.33334C6.53659 6.31552 2.42572 13.1406 1.72317 17.2778C0.414362 24.9852 8.10777 32.7733 14.3621 35.9445C20.4568 39.0348 29.4352 40.8367 35.1676 36C38.6521 33.06 41.2254 26.9594 41.4732 22.5C41.7804 16.9703 39.7294 13.979 35.2232 11.2222C33.1241 9.93811 31.2369 8.14494 29.001 7.11112C25.5233 5.50319 21.3127 6.00001 17.5843 6.00001C16.2165 6.00001 14.7129 5.81112 13.7787 7.00001C13.0034 7.98675 13.5196 8.00001 14.501 8.00001" stroke="black" stroke-opacity="0.07" stroke-width="2" stroke-linecap="round" stroke-linejoin="round"/>
<path d="M84 43C86.5473 45.1451 89.2066 46.2533 92.3333 47.4444C98.6928 49.8671 103.499 52.1417 107.778 57.75C111.662 62.841 113.054 67.2675 113.278 73.5556C113.608 82.8625 116.358 89.9784 121.167 98C125.541 105.296 130.325 111.462 132.806 119.667C133.829 123.051 137.122 124.145 140 125.5" stroke="black" stroke-opacity="0.05" stroke-width="2" stroke-linecap="round" stroke-linejoin="round"/>
<path d="M114.5 4C121.917 35.2978 127.5 66.7908 127.5 99" stroke="black" stroke-opacity="0.05" stroke-width="2" stroke-linecap="round" stroke-linejoin="round"/>
<path d="M97 150.5C93.1152 159.88 89.5392 168.96 87.5278 178.917C87.0359 181.351 86.3467 183.672 85.5 186" stroke="black" stroke-opacity="0.05" stroke-width="2" stroke-linecap="round" stroke-linejoin="round"/>
<path d="M104.999 151.5C104.554 148.343 103.354 144.285 106.138 141.75C108.543 139.56 113.346 139.73 115.888 141.528C123.506 146.916 121.23 159.585 118.61 166.889C115.772 174.802 106.976 190.334 113.471 198.5C116.752 202.625 124.086 202.175 128.638 201.667C136.071 200.837 143.389 198.634 150.444 196.222C151.664 195.805 154.276 193.882 154.166 195.167C154.011 196.969 151.595 199.255 150.721 200.722C148.145 205.047 149.049 208.063 154.694 206.972C156.938 206.539 170.422 199.711 163.999 196.5" stroke="black" stroke-opacity="0.05" stroke-width="2" stroke-linecap="round" stroke-linejoin="round"/>
</svg>
