<svg width="261" height="245" viewBox="0 0 261 245" fill="none" xmlns="http://www.w3.org/2000/svg">
<path d="M188 50C194.052 45.6269 206.623 36.1903 214.778 41.2778C219.408 44.1662 218.665 50.3197 217.389 54.6667C214.563 64.2919 208.127 72.4089 204.639 81.7778C203.973 83.5649 201.759 88.7053 204.778 90.1667C207.939 91.6972 213.154 90.18 216.278 89.3889C219.114 88.6706 221.857 87.626 224.694 86.9167C227.652 86.1773 227.923 87.1502 227 89.8889C225.531 94.2453 221.106 100.127 222.444 104.944C223.694 109.444 230.142 110.956 233.889 112.5C235.223 113.05 236.675 113.581 237.833 114.472C238.619 115.076 238.912 115.992 240 116.139C244.132 116.697 248.263 113.658 251.5 111.5" stroke="black" stroke-opacity="0.05" stroke-width="2" stroke-linecap="round" stroke-linejoin="round"/>
<path d="M229.5 224.5C234.3 219.231 240.156 214.585 244.5 209" stroke="black" stroke-opacity="0.05" stroke-width="2" stroke-linecap="round" stroke-linejoin="round"/>
<path d="M137.5 228C131.746 231.288 126.161 227.333 120.056 227.028C110.518 226.551 111.989 241.809 103.778 243.528C100.953 244.119 97.9355 240.249 95.6389 239.083C91.0583 236.759 85.1754 236.285 80.1111 236.111C74.099 235.905 68.1225 237.41 62.3611 238.972C61.0228 239.335 58.4235 240 57.5 240" stroke="black" stroke-opacity="0.05" stroke-width="1.5" stroke-linecap="round" stroke-linejoin="round"/>
<path d="M12.4993 75C9.51922 68.0987 11.194 64.8053 16.1938 59.8056C19.055 56.9443 19.6363 55.2875 23.3327 57.2778C26.8167 59.1538 30.9809 59.2672 34.3882 61.2222C37.8077 63.1842 33.1913 63.2989 34.3327 65.8889C35.7681 69.1463 40.5582 69 43.4438 69C44.58 69 47.3742 67.9518 47.7771 68.6111C49.2588 71.0358 50.0738 74.3522 52.1104 76.3889C53.3483 77.6268 55.4922 76.5 56.9993 76.5" stroke="black" stroke-opacity="0.05" stroke-width="2" stroke-linecap="round" stroke-linejoin="round"/>
<path d="M190 6.49999C197.955 5.31124 207.965 3.29072 208.056 14.2222C208.072 16.195 205.4 27.812 208.639 27.8611C213.404 27.9333 220.293 24.8541 223.833 21.7222C225.674 20.0942 225.567 17.8849 226.5 15.8333C227.704 13.1837 232.779 18.3301 234.278 18.6667C240.803 20.1316 243.616 13.1644 241.417 7.66666C240.851 6.25286 239.097 4.89807 237.5 5.55555C234.999 6.58547 234.691 10.6854 235.333 12.8889C236.653 17.414 244.633 18.1003 246.944 14.0556C247.6 12.9091 247.573 15.4254 247.611 15.7222C247.956 18.4211 248.571 21.9552 250.944 23.6667C254.132 25.9646 256.395 24 259.5 24" stroke="black" stroke-opacity="0.05" stroke-width="1.5" stroke-linecap="round" stroke-linejoin="round"/>
<path d="M20.4999 1.5C16.5361 1.82263 13.2743 3.14414 9.66653 4.86111C7.3625 5.95761 1.30235 8.00634 1.61097 11.5556C2.01594 16.2126 8.07089 18.8025 12.111 19.2778C17.4177 19.9021 21.4041 16.9437 23.111 12.0278C24.9256 6.80152 21.1224 4.72459 16.361 6.88889C13.7217 8.08854 10.8443 13.0006 13.9999 15.2778C18.1323 18.2599 24.926 16.8992 28.5276 13.7778C29.9376 12.5558 31.1818 9.41226 28.111 9.5C27.7677 9.50981 32.4612 12.4065 33.4999 13" stroke="black" stroke-opacity="0.05" stroke-width="1.5" stroke-linecap="round" stroke-linejoin="round"/>
<path d="M157.5 9C159.895 7.49735 165.707 5.36442 162.917 10.9444C162.376 12.0254 161.024 13.4516 159.861 13.9167C159.007 14.2582 161.591 13.2536 162.5 13.1111C174.169 11.2806 163.028 26.0375 158.5 20" stroke="black" stroke-opacity="0.07" stroke-width="2" stroke-linecap="round" stroke-linejoin="round"/>
</svg>
