<svg width="637" height="93" viewBox="0 0 637 93" fill="none" xmlns="http://www.w3.org/2000/svg">
<rect x="40.9688" width="54.2344" height="43.8047" rx="5" fill="#2E2E2E"/>
<path opacity="0.7" d="M65.9817 36.5625C65.9177 36.5625 65.8737 36.5305 65.8497 36.4665L64.1457 30.6225L64.1337 30.5865C64.1337 30.5225 64.1737 30.4905 64.2537 30.4905H64.8777C64.9497 30.4905 64.9937 30.5265 65.0097 30.5985L66.2817 35.3265C66.2897 35.3425 66.2977 35.3505 66.3057 35.3505C66.3217 35.3505 66.3337 35.3425 66.3417 35.3265L67.6377 30.5985C67.6537 30.5265 67.6977 30.4905 67.7697 30.4905H68.3457C68.4177 30.4905 68.4617 30.5225 68.4777 30.5865L69.7857 35.3145C69.7937 35.3305 69.8057 35.3385 69.8217 35.3385C69.8377 35.3385 69.8497 35.3305 69.8577 35.3145L71.1657 30.5985C71.1817 30.5265 71.2257 30.4905 71.2977 30.4905L71.9217 30.5025C71.9617 30.5025 71.9897 30.5145 72.0057 30.5385C72.0297 30.5625 72.0377 30.5945 72.0297 30.6345L70.3017 36.4665C70.2777 36.5305 70.2337 36.5625 70.1697 36.5625H69.5337C69.4697 36.5625 69.4257 36.5305 69.4017 36.4665L68.0937 31.9785C68.0857 31.9625 68.0737 31.9545 68.0577 31.9545C68.0497 31.9545 68.0417 31.9625 68.0337 31.9785L66.7617 36.4665C66.7377 36.5305 66.6937 36.5625 66.6297 36.5625H65.9817Z" fill="#F8F8F8"/>
<rect x="99.375" width="54.2344" height="43.8047" rx="5" fill="#2E2E2E"/>
<path opacity="0.7" d="M128.909 32.5065C128.941 32.7305 128.957 33.0105 128.957 33.3465V33.7305C128.957 33.8105 128.917 33.8505 128.837 33.8505H124.961C124.929 33.8505 124.913 33.8665 124.913 33.8985C124.929 34.3385 124.953 34.6225 124.985 34.7505C125.073 35.1105 125.261 35.3945 125.549 35.6025C125.837 35.8105 126.205 35.9145 126.653 35.9145C126.989 35.9145 127.285 35.8385 127.541 35.6865C127.797 35.5345 127.997 35.3185 128.141 35.0385C128.189 34.9665 128.245 34.9505 128.309 34.9905L128.777 35.2665C128.841 35.3065 128.857 35.3625 128.825 35.4345C128.625 35.8185 128.325 36.1225 127.925 36.3465C127.525 36.5625 127.065 36.6705 126.545 36.6705C125.977 36.6625 125.501 36.5265 125.117 36.2625C124.733 35.9985 124.457 35.6305 124.289 35.1585C124.145 34.7745 124.073 34.2225 124.073 33.5025C124.073 33.1665 124.077 32.8945 124.085 32.6865C124.101 32.4705 124.133 32.2785 124.181 32.1105C124.317 31.5905 124.589 31.1745 124.997 30.8625C125.413 30.5505 125.913 30.3945 126.497 30.3945C127.225 30.3945 127.785 30.5785 128.177 30.9465C128.569 31.3145 128.813 31.8345 128.909 32.5065ZM126.497 31.1385C126.105 31.1385 125.777 31.2425 125.513 31.4505C125.257 31.6505 125.089 31.9225 125.009 32.2665C124.961 32.4345 124.929 32.7065 124.913 33.0825C124.913 33.1145 124.929 33.1305 124.961 33.1305H128.069C128.101 33.1305 128.117 33.1145 128.117 33.0825C128.101 32.7225 128.077 32.4665 128.045 32.3145C127.957 31.9545 127.777 31.6705 127.505 31.4625C127.241 31.2465 126.905 31.1385 126.497 31.1385Z" fill="#F8F8F8"/>
<rect opacity="0.2" x="157.781" width="54.2344" height="43.8047" rx="5" fill="#2E2E2E"/>
<path opacity="0.7" d="M186.469 30.4305C186.733 30.4305 186.961 30.4825 187.153 30.5865C187.217 30.6185 187.241 30.6705 187.225 30.7425L187.093 31.3305C187.069 31.4105 187.017 31.4345 186.937 31.4025C186.801 31.3465 186.645 31.3185 186.469 31.3185L186.313 31.3305C185.897 31.3465 185.553 31.5025 185.281 31.7985C185.009 32.0865 184.873 32.4545 184.873 32.9025V36.4425C184.873 36.5225 184.833 36.5625 184.753 36.5625H184.141C184.061 36.5625 184.021 36.5225 184.021 36.4425V30.6105C184.021 30.5305 184.061 30.4905 184.141 30.4905H184.753C184.833 30.4905 184.873 30.5305 184.873 30.6105V31.3425C184.873 31.3665 184.877 31.3825 184.885 31.3905C184.901 31.3905 184.913 31.3825 184.921 31.3665C185.089 31.0705 185.301 30.8425 185.557 30.6825C185.821 30.5145 186.125 30.4305 186.469 30.4305Z" fill="#2E2E2E"/>
<rect x="216.188" width="54.2344" height="43.8047" rx="5" fill="#2E2E2E"/>
<path opacity="0.7" d="M245.151 31.0785C245.151 31.1585 245.111 31.1985 245.031 31.1985H243.675C243.643 31.1985 243.627 31.2145 243.627 31.2465V34.7865C243.627 35.1705 243.711 35.4425 243.879 35.6025C244.055 35.7545 244.327 35.8305 244.695 35.8305H244.995C245.075 35.8305 245.115 35.8705 245.115 35.9505V36.4425C245.115 36.5225 245.075 36.5625 244.995 36.5625C244.899 36.5705 244.751 36.5745 244.551 36.5745C243.975 36.5745 243.539 36.4665 243.243 36.2505C242.947 36.0345 242.799 35.6345 242.799 35.0505V31.2465C242.799 31.2145 242.783 31.1985 242.751 31.1985H242.019C241.939 31.1985 241.899 31.1585 241.899 31.0785V30.6105C241.899 30.5305 241.939 30.4905 242.019 30.4905H242.751C242.783 30.4905 242.799 30.4745 242.799 30.4425V29.0505C242.799 28.9705 242.839 28.9305 242.919 28.9305H243.507C243.587 28.9305 243.627 28.9705 243.627 29.0505V30.4425C243.627 30.4745 243.643 30.4905 243.675 30.4905H245.031C245.111 30.4905 245.151 30.5305 245.151 30.6105V31.0785Z" fill="#F8F8F8"/>
<rect x="274.594" width="54.2344" height="43.8047" rx="5" fill="#2E2E2E"/>
<path opacity="0.7" d="M299.977 38.9625C299.921 38.9625 299.893 38.9225 299.893 38.8425V38.3625C299.893 38.2825 299.933 38.2425 300.013 38.2425H300.061C300.373 38.2345 300.613 38.1865 300.781 38.0985C300.957 38.0185 301.105 37.8625 301.225 37.6305C301.353 37.4065 301.489 37.0625 301.633 36.5985C301.649 36.5665 301.649 36.5425 301.633 36.5265L299.605 30.6225L299.593 30.5745C299.593 30.5185 299.629 30.4905 299.701 30.4905H300.337C300.409 30.4905 300.457 30.5225 300.481 30.5865L302.041 35.4345C302.049 35.4505 302.061 35.4585 302.077 35.4585C302.093 35.4585 302.105 35.4505 302.113 35.4345L303.649 30.5865C303.673 30.5225 303.721 30.4905 303.793 30.4905H304.417C304.505 30.4905 304.537 30.5345 304.513 30.6225L302.293 37.0905C302.101 37.6265 301.921 38.0225 301.753 38.2785C301.585 38.5345 301.373 38.7105 301.117 38.8065C300.869 38.9105 300.517 38.9625 300.061 38.9625H299.977Z" fill="#F8F8F8"/>
<rect x="333" width="54.2344" height="43.8047" rx="5" fill="#2E2E2E"/>
<path opacity="0.7" d="M361.88 30.6105C361.88 30.5305 361.92 30.4905 362 30.4905H362.612C362.692 30.4905 362.732 30.5305 362.732 30.6105V36.4425C362.732 36.5225 362.692 36.5625 362.612 36.5625H362C361.92 36.5625 361.88 36.5225 361.88 36.4425V35.9265C361.88 35.9105 361.872 35.8985 361.856 35.8905C361.84 35.8825 361.828 35.8865 361.82 35.9025C361.484 36.3985 360.952 36.6465 360.224 36.6465C359.84 36.6465 359.484 36.5705 359.156 36.4185C358.836 36.2585 358.58 36.0305 358.388 35.7345C358.204 35.4385 358.112 35.0825 358.112 34.6665V30.6105C358.112 30.5305 358.152 30.4905 358.232 30.4905H358.844C358.924 30.4905 358.964 30.5305 358.964 30.6105V34.4145C358.964 34.8705 359.092 35.2345 359.348 35.5065C359.604 35.7705 359.952 35.9025 360.392 35.9025C360.848 35.9025 361.208 35.7665 361.472 35.4945C361.744 35.2225 361.88 34.8625 361.88 34.4145V30.6105Z" fill="#F8F8F8"/>
<rect x="0.640625" y="48.2812" width="54.2344" height="43.8047" rx="5" fill="#2E2E2E"/>
<path opacity="0.7" d="M27.7534 78.1133C28.4734 78.1133 29.0294 78.2972 29.4214 78.6652C29.8134 79.0332 30.0094 79.5212 30.0094 80.1292V84.1612C30.0094 84.2412 29.9694 84.2812 29.8894 84.2812H29.2774C29.1974 84.2812 29.1574 84.2412 29.1574 84.1612V83.6692C29.1574 83.6532 29.1494 83.6412 29.1334 83.6332C29.1254 83.6252 29.1134 83.6292 29.0974 83.6452C28.8974 83.8852 28.6374 84.0692 28.3174 84.1972C27.9974 84.3173 27.6414 84.3773 27.2494 84.3773C26.6814 84.3773 26.2054 84.2332 25.8214 83.9452C25.4374 83.6572 25.2454 83.2172 25.2454 82.6252C25.2454 82.0252 25.4614 81.5532 25.8934 81.2092C26.3334 80.8572 26.9414 80.6812 27.7174 80.6812H29.1094C29.1414 80.6812 29.1574 80.6652 29.1574 80.6332V80.1772C29.1574 79.7692 29.0414 79.4492 28.8094 79.2172C28.5854 78.9772 28.2334 78.8572 27.7534 78.8572C27.3694 78.8572 27.0574 78.9332 26.8174 79.0852C26.5774 79.2292 26.4294 79.4332 26.3734 79.6972C26.3494 79.7772 26.3014 79.8132 26.2294 79.8052L25.5814 79.7212C25.4934 79.7052 25.4574 79.6732 25.4734 79.6252C25.5374 79.1772 25.7774 78.8132 26.1934 78.5332C26.6094 78.2532 27.1294 78.1133 27.7534 78.1133ZM27.4174 83.6452C27.8894 83.6452 28.2974 83.5292 28.6414 83.2972C28.9854 83.0572 29.1574 82.7372 29.1574 82.3372V81.4012C29.1574 81.3692 29.1414 81.3532 29.1094 81.3532H27.8494C27.3214 81.3532 26.8974 81.4612 26.5774 81.6772C26.2574 81.8932 26.0974 82.1932 26.0974 82.5772C26.0974 82.9292 26.2174 83.1972 26.4574 83.3812C26.7054 83.5572 27.0254 83.6452 27.4174 83.6452Z" fill="#F8F8F8"/>
<path d="M27.8026 68.4093C26.9706 68.4093 26.24 68.2492 25.6106 67.9292C24.9813 67.5986 24.496 67.1399 24.1546 66.5532C23.8133 65.9666 23.6426 65.2892 23.6426 64.5212V60.8252C23.6426 60.0572 23.8133 59.3799 24.1546 58.7932C24.496 58.2066 24.9813 57.7532 25.6106 57.4332C26.24 57.1132 26.9706 56.9532 27.8026 56.9532C28.624 56.9532 29.344 57.1079 29.9626 57.4172C30.592 57.7159 31.0773 58.1479 31.4186 58.7132C31.7706 59.2679 31.9466 59.9132 31.9466 60.6492C31.9466 60.7452 31.8826 60.8039 31.7546 60.8252L29.8826 60.9372H29.8506C29.744 60.9372 29.6906 60.8786 29.6906 60.7612C29.6906 60.1959 29.5146 59.7426 29.1626 59.4012C28.8213 59.0599 28.368 58.8892 27.8026 58.8892C27.2266 58.8892 26.7626 59.0599 26.4106 59.4012C26.0693 59.7426 25.8986 60.1959 25.8986 60.7612V64.6172C25.8986 65.1719 26.0693 65.6199 26.4106 65.9612C26.7626 66.3026 27.2266 66.4732 27.8026 66.4732C28.368 66.4732 28.8213 66.3026 29.1626 65.9612C29.5146 65.6199 29.6906 65.1719 29.6906 64.6172C29.6906 64.4999 29.7546 64.4412 29.8826 64.4412L31.7546 64.5212C31.808 64.5212 31.8506 64.5372 31.8826 64.5692C31.9253 64.6012 31.9466 64.6386 31.9466 64.6812C31.9466 65.4172 31.7706 66.0679 31.4186 66.6332C31.0773 67.1986 30.592 67.6359 29.9626 67.9452C29.344 68.2546 28.624 68.4093 27.8026 68.4093Z" fill="#F8F8F8"/>
<path d="M62.0526 20.4093C61.2206 20.4093 60.49 20.2492 59.8606 19.9292C59.2313 19.5986 58.746 19.1399 58.4046 18.5532C58.0633 17.9666 57.8926 17.2892 57.8926 16.5212V12.8252C57.8926 12.0572 58.0633 11.3799 58.4046 10.7932C58.746 10.2066 59.2313 9.75325 59.8606 9.43325C60.49 9.11325 61.2206 8.95325 62.0526 8.95325C62.874 8.95325 63.594 9.10792 64.2126 9.41725C64.842 9.71592 65.3273 10.1479 65.6686 10.7132C66.0206 11.2679 66.1966 11.9132 66.1966 12.6492C66.1966 12.7452 66.1326 12.8039 66.0046 12.8252L64.1326 12.9372H64.1006C63.994 12.9372 63.9406 12.8786 63.9406 12.7612C63.9406 12.1959 63.7646 11.7426 63.4126 11.4012C63.0713 11.0599 62.618 10.8892 62.0526 10.8892C61.4766 10.8892 61.0126 11.0599 60.6606 11.4012C60.3193 11.7426 60.1486 12.1959 60.1486 12.7612V16.6172C60.1486 17.1719 60.3193 17.6199 60.6606 17.9612C61.0126 18.3026 61.4766 18.4732 62.0526 18.4732C62.618 18.4732 63.0713 18.3026 63.4126 17.9612C63.7646 17.6199 63.9406 17.1719 63.9406 16.6172C63.9406 16.4999 64.0046 16.4412 64.1326 16.4412L66.0046 16.5212C66.058 16.5212 66.1006 16.5372 66.1326 16.5692C66.1753 16.6012 66.1966 16.6386 66.1966 16.6812C66.1966 17.4172 66.0206 18.0679 65.6686 18.6332C65.3273 19.1986 64.842 19.6359 64.2126 19.9452C63.594 20.2546 62.874 20.4093 62.0526 20.4093ZM77.099 13.6252C77.099 13.6786 77.0777 13.7266 77.035 13.7692C77.003 13.8012 76.9603 13.8172 76.907 13.8172H75.707C75.643 13.8172 75.611 13.8439 75.611 13.8972L75.371 15.4812C75.371 15.5346 75.3923 15.5612 75.435 15.5612H76.331C76.3843 15.5612 76.427 15.5826 76.459 15.6252C76.5017 15.6572 76.523 15.6999 76.523 15.7532V17.2892C76.523 17.3426 76.5017 17.3906 76.459 17.4332C76.427 17.4652 76.3843 17.4812 76.331 17.4812H75.147C75.083 17.4812 75.051 17.5079 75.051 17.5612L74.731 19.6732C74.7203 19.7906 74.651 19.8492 74.523 19.8492H72.651C72.523 19.8492 72.4643 19.7799 72.475 19.6412L72.795 17.5612C72.795 17.5079 72.7737 17.4812 72.731 17.4812H71.131C71.067 17.4812 71.035 17.5079 71.035 17.5612L70.715 19.6732C70.7043 19.7906 70.635 19.8492 70.507 19.8492H68.635C68.507 19.8492 68.4483 19.7799 68.459 19.6412L68.779 17.5612C68.779 17.5079 68.7577 17.4812 68.715 17.4812H67.819C67.7657 17.4812 67.7177 17.4652 67.675 17.4332C67.643 17.3906 67.627 17.3426 67.627 17.2892V15.7532C67.627 15.6999 67.643 15.6572 67.675 15.6252C67.7177 15.5826 67.7657 15.5612 67.819 15.5612H69.003C69.067 15.5612 69.099 15.5346 69.099 15.4812L69.339 13.8972C69.339 13.8439 69.3177 13.8172 69.275 13.8172H68.411C68.3577 13.8172 68.3097 13.8012 68.267 13.7692C68.235 13.7266 68.219 13.6786 68.219 13.6252V12.0732C68.219 12.0199 68.235 11.9772 68.267 11.9452C68.3097 11.9026 68.3577 11.8812 68.411 11.8812H69.579C69.643 11.8812 69.675 11.8546 69.675 11.8012L69.995 9.68925C70.0057 9.57192 70.075 9.51325 70.203 9.51325H72.075C72.203 9.51325 72.2617 9.58258 72.251 9.72125L71.931 11.8012C71.931 11.8546 71.9523 11.8812 71.995 11.8812H73.579C73.643 11.8812 73.675 11.8546 73.675 11.8012L73.995 9.68925C74.0057 9.57192 74.075 9.51325 74.203 9.51325H76.075C76.203 9.51325 76.2617 9.58258 76.251 9.72125L75.931 11.8012C75.931 11.8546 75.9523 11.8812 75.995 11.8812H76.923C76.9763 11.8812 77.019 11.9026 77.051 11.9452C77.0937 11.9772 77.115 12.0199 77.115 12.0732L77.099 13.6252ZM73.019 15.5612C73.083 15.5612 73.115 15.5346 73.115 15.4812L73.355 13.8972C73.355 13.8439 73.3337 13.8172 73.291 13.8172H71.691C71.627 13.8172 71.595 13.8439 71.595 13.8972L71.355 15.4812C71.355 15.5346 71.3763 15.5612 71.419 15.5612H73.019Z" fill="#F8F8F8"/>
<path d="M116.231 20.2812C116.177 20.2812 116.129 20.2652 116.087 20.2332C116.055 20.1906 116.039 20.1426 116.039 20.0892V9.27325C116.039 9.21992 116.055 9.17725 116.087 9.14525C116.129 9.10258 116.177 9.08125 116.231 9.08125H120.231C121.031 9.08125 121.729 9.22525 122.327 9.51325C122.935 9.79058 123.404 10.1852 123.735 10.6972C124.065 11.2092 124.231 11.8012 124.231 12.4732V16.8892C124.231 17.5612 124.065 18.1532 123.735 18.6652C123.404 19.1772 122.935 19.5772 122.327 19.8652C121.729 20.1426 121.031 20.2812 120.231 20.2812H116.231ZM118.295 18.2652C118.295 18.3186 118.321 18.3452 118.375 18.3452H120.311C120.801 18.3452 121.196 18.1799 121.495 17.8492C121.804 17.5186 121.964 17.0759 121.975 16.5212V12.8412C121.975 12.2866 121.82 11.8439 121.511 11.5132C121.212 11.1826 120.807 11.0172 120.295 11.0172H118.375C118.321 11.0172 118.295 11.0439 118.295 11.0972V18.2652ZM135.177 13.6252C135.177 13.6786 135.156 13.7266 135.113 13.7692C135.081 13.8012 135.038 13.8172 134.985 13.8172H133.785C133.721 13.8172 133.689 13.8439 133.689 13.8972L133.449 15.4812C133.449 15.5346 133.47 15.5612 133.513 15.5612H134.409C134.462 15.5612 134.505 15.5826 134.537 15.6252C134.58 15.6572 134.601 15.6999 134.601 15.7532V17.2892C134.601 17.3426 134.58 17.3906 134.537 17.4332C134.505 17.4652 134.462 17.4812 134.409 17.4812H133.225C133.161 17.4812 133.129 17.5079 133.129 17.5612L132.809 19.6732C132.798 19.7906 132.729 19.8492 132.601 19.8492H130.729C130.601 19.8492 130.542 19.7799 130.553 19.6412L130.873 17.5612C130.873 17.5079 130.852 17.4812 130.809 17.4812H129.209C129.145 17.4812 129.113 17.5079 129.113 17.5612L128.793 19.6732C128.782 19.7906 128.713 19.8492 128.585 19.8492H126.713C126.585 19.8492 126.526 19.7799 126.537 19.6412L126.857 17.5612C126.857 17.5079 126.836 17.4812 126.793 17.4812H125.897C125.844 17.4812 125.796 17.4652 125.753 17.4332C125.721 17.3906 125.705 17.3426 125.705 17.2892V15.7532C125.705 15.6999 125.721 15.6572 125.753 15.6252C125.796 15.5826 125.844 15.5612 125.897 15.5612H127.081C127.145 15.5612 127.177 15.5346 127.177 15.4812L127.417 13.8972C127.417 13.8439 127.396 13.8172 127.353 13.8172H126.489C126.436 13.8172 126.388 13.8012 126.345 13.7692C126.313 13.7266 126.297 13.6786 126.297 13.6252V12.0732C126.297 12.0199 126.313 11.9772 126.345 11.9452C126.388 11.9026 126.436 11.8812 126.489 11.8812H127.657C127.721 11.8812 127.753 11.8546 127.753 11.8012L128.073 9.68925C128.084 9.57192 128.153 9.51325 128.281 9.51325H130.153C130.281 9.51325 130.34 9.58258 130.329 9.72125L130.009 11.8012C130.009 11.8546 130.03 11.8812 130.073 11.8812H131.657C131.721 11.8812 131.753 11.8546 131.753 11.8012L132.073 9.68925C132.084 9.57192 132.153 9.51325 132.281 9.51325H134.153C134.281 9.51325 134.34 9.58258 134.329 9.72125L134.009 11.8012C134.009 11.8546 134.03 11.8812 134.073 11.8812H135.001C135.054 11.8812 135.097 11.9026 135.129 11.9452C135.172 11.9772 135.193 12.0199 135.193 12.0732L135.177 13.6252ZM131.097 15.5612C131.161 15.5612 131.193 15.5346 131.193 15.4812L131.433 13.8972C131.433 13.8439 131.412 13.8172 131.369 13.8172H129.769C129.705 13.8172 129.673 13.8439 129.673 13.8972L129.433 15.4812C129.433 15.5346 129.454 15.5612 129.497 15.5612H131.097Z" fill="#F8F8F8"/>
<path d="M240.767 10.8252C240.767 10.8786 240.746 10.9266 240.703 10.9692C240.671 11.0012 240.629 11.0172 240.575 11.0172H235.343C235.29 11.0172 235.263 11.0439 235.263 11.0972V13.5772C235.263 13.6306 235.29 13.6572 235.343 13.6572H238.783C238.837 13.6572 238.879 13.6786 238.911 13.7212C238.954 13.7532 238.975 13.7959 238.975 13.8492V15.4012C238.975 15.4546 238.954 15.5026 238.911 15.5452C238.879 15.5772 238.837 15.5932 238.783 15.5932H235.343C235.29 15.5932 235.263 15.6199 235.263 15.6732V20.0892C235.263 20.1426 235.242 20.1906 235.199 20.2332C235.167 20.2652 235.125 20.2812 235.071 20.2812H233.199C233.146 20.2812 233.098 20.2652 233.055 20.2332C233.023 20.1906 233.007 20.1426 233.007 20.0892V9.27325C233.007 9.21992 233.023 9.17725 233.055 9.14525C233.098 9.10258 233.146 9.08125 233.199 9.08125H240.575C240.629 9.08125 240.671 9.10258 240.703 9.14525C240.746 9.17725 240.767 9.21992 240.767 9.27325V10.8252ZM251.208 13.6252C251.208 13.6786 251.187 13.7266 251.144 13.7692C251.112 13.8012 251.07 13.8172 251.016 13.8172H249.816C249.752 13.8172 249.72 13.8439 249.72 13.8972L249.48 15.4812C249.48 15.5346 249.502 15.5612 249.544 15.5612H250.44C250.494 15.5612 250.536 15.5826 250.568 15.6252C250.611 15.6572 250.632 15.6999 250.632 15.7532V17.2892C250.632 17.3426 250.611 17.3906 250.568 17.4332C250.536 17.4652 250.494 17.4812 250.44 17.4812H249.256C249.192 17.4812 249.16 17.5079 249.16 17.5612L248.84 19.6732C248.83 19.7906 248.76 19.8492 248.632 19.8492H246.76C246.632 19.8492 246.574 19.7799 246.584 19.6412L246.904 17.5612C246.904 17.5079 246.883 17.4812 246.84 17.4812H245.24C245.176 17.4812 245.144 17.5079 245.144 17.5612L244.824 19.6732C244.814 19.7906 244.744 19.8492 244.616 19.8492H242.744C242.616 19.8492 242.558 19.7799 242.568 19.6412L242.888 17.5612C242.888 17.5079 242.867 17.4812 242.824 17.4812H241.928C241.875 17.4812 241.827 17.4652 241.784 17.4332C241.752 17.3906 241.736 17.3426 241.736 17.2892V15.7532C241.736 15.6999 241.752 15.6572 241.784 15.6252C241.827 15.5826 241.875 15.5612 241.928 15.5612H243.112C243.176 15.5612 243.208 15.5346 243.208 15.4812L243.448 13.8972C243.448 13.8439 243.427 13.8172 243.384 13.8172H242.52C242.467 13.8172 242.419 13.8012 242.376 13.7692C242.344 13.7266 242.328 13.6786 242.328 13.6252V12.0732C242.328 12.0199 242.344 11.9772 242.376 11.9452C242.419 11.9026 242.467 11.8812 242.52 11.8812H243.688C243.752 11.8812 243.784 11.8546 243.784 11.8012L244.104 9.68925C244.115 9.57192 244.184 9.51325 244.312 9.51325H246.184C246.312 9.51325 246.371 9.58258 246.36 9.72125L246.04 11.8012C246.04 11.8546 246.062 11.8812 246.104 11.8812H247.688C247.752 11.8812 247.784 11.8546 247.784 11.8012L248.104 9.68925C248.115 9.57192 248.184 9.51325 248.312 9.51325H250.184C250.312 9.51325 250.371 9.58258 250.36 9.72125L250.04 11.8012C250.04 11.8546 250.062 11.8812 250.104 11.8812H251.032C251.086 11.8812 251.128 11.9026 251.16 11.9452C251.203 11.9772 251.224 12.0199 251.224 12.0732L251.208 13.6252ZM247.128 15.5612C247.192 15.5612 247.224 15.5346 247.224 15.4812L247.464 13.8972C247.464 13.8439 247.443 13.8172 247.4 13.8172H245.8C245.736 13.8172 245.704 13.8439 245.704 13.8972L245.464 15.4812C245.464 15.5346 245.486 15.5612 245.528 15.5612H247.128Z" fill="#F8F8F8"/>
<path d="M297.021 20.4093C296.2 20.4093 295.475 20.2439 294.845 19.9132C294.216 19.5826 293.725 19.1239 293.373 18.5372C293.032 17.9399 292.861 17.2519 292.861 16.4732V12.8892C292.861 12.1106 293.032 11.4226 293.373 10.8252C293.725 10.2279 294.216 9.76925 294.845 9.44925C295.475 9.11858 296.2 8.95325 297.021 8.95325C297.832 8.95325 298.547 9.11325 299.165 9.43325C299.795 9.75325 300.28 10.1906 300.621 10.7452C300.973 11.2892 301.149 11.8972 301.149 12.5692V12.6812C301.149 12.7346 301.128 12.7826 301.085 12.8252C301.053 12.8572 301.011 12.8732 300.957 12.8732H299.085C299.032 12.8732 298.984 12.8572 298.941 12.8252C298.909 12.7826 298.893 12.7346 298.893 12.6812V12.6332C298.893 12.1426 298.723 11.7319 298.381 11.4012C298.04 11.0599 297.587 10.8892 297.021 10.8892C296.445 10.8892 295.981 11.0706 295.629 11.4332C295.288 11.7852 295.117 12.2492 295.117 12.8252V16.5372C295.117 17.1132 295.304 17.5826 295.677 17.9452C296.051 18.2972 296.525 18.4732 297.101 18.4732C297.656 18.4732 298.099 18.3292 298.429 18.0412C298.76 17.7426 298.925 17.3319 298.925 16.8092V16.0892C298.925 16.0359 298.899 16.0092 298.845 16.0092H297.053C297 16.0092 296.952 15.9932 296.909 15.9612C296.877 15.9186 296.861 15.8706 296.861 15.8172V14.3452C296.861 14.2919 296.877 14.2492 296.909 14.2172C296.952 14.1746 297 14.1532 297.053 14.1532H300.957C301.011 14.1532 301.053 14.1746 301.085 14.2172C301.128 14.2492 301.149 14.2919 301.149 14.3452V16.4572C301.149 17.2679 300.979 17.9719 300.637 18.5692C300.296 19.1666 299.811 19.6252 299.181 19.9452C298.563 20.2546 297.843 20.4093 297.021 20.4093ZM312.13 13.6252C312.13 13.6786 312.109 13.7266 312.066 13.7692C312.034 13.8012 311.992 13.8172 311.938 13.8172H310.738C310.674 13.8172 310.642 13.8439 310.642 13.8972L310.402 15.4812C310.402 15.5346 310.424 15.5612 310.466 15.5612H311.362C311.416 15.5612 311.458 15.5826 311.49 15.6252C311.533 15.6572 311.554 15.6999 311.554 15.7532V17.2892C311.554 17.3426 311.533 17.3906 311.49 17.4332C311.458 17.4652 311.416 17.4812 311.362 17.4812H310.178C310.114 17.4812 310.082 17.5079 310.082 17.5612L309.762 19.6732C309.752 19.7906 309.682 19.8492 309.554 19.8492H307.682C307.554 19.8492 307.496 19.7799 307.506 19.6412L307.826 17.5612C307.826 17.5079 307.805 17.4812 307.762 17.4812H306.162C306.098 17.4812 306.066 17.5079 306.066 17.5612L305.746 19.6732C305.736 19.7906 305.666 19.8492 305.538 19.8492H303.666C303.538 19.8492 303.48 19.7799 303.49 19.6412L303.81 17.5612C303.81 17.5079 303.789 17.4812 303.746 17.4812H302.85C302.797 17.4812 302.749 17.4652 302.706 17.4332C302.674 17.3906 302.658 17.3426 302.658 17.2892V15.7532C302.658 15.6999 302.674 15.6572 302.706 15.6252C302.749 15.5826 302.797 15.5612 302.85 15.5612H304.034C304.098 15.5612 304.13 15.5346 304.13 15.4812L304.37 13.8972C304.37 13.8439 304.349 13.8172 304.306 13.8172H303.442C303.389 13.8172 303.341 13.8012 303.298 13.7692C303.266 13.7266 303.25 13.6786 303.25 13.6252V12.0732C303.25 12.0199 303.266 11.9772 303.298 11.9452C303.341 11.9026 303.389 11.8812 303.442 11.8812H304.61C304.674 11.8812 304.706 11.8546 304.706 11.8012L305.026 9.68925C305.037 9.57192 305.106 9.51325 305.234 9.51325H307.106C307.234 9.51325 307.293 9.58258 307.282 9.72125L306.962 11.8012C306.962 11.8546 306.984 11.8812 307.026 11.8812H308.61C308.674 11.8812 308.706 11.8546 308.706 11.8012L309.026 9.68925C309.037 9.57192 309.106 9.51325 309.234 9.51325H311.106C311.234 9.51325 311.293 9.58258 311.282 9.72125L310.962 11.8012C310.962 11.8546 310.984 11.8812 311.026 11.8812H311.954C312.008 11.8812 312.05 11.9026 312.082 11.9452C312.125 11.9772 312.146 12.0199 312.146 12.0732L312.13 13.6252ZM308.05 15.5612C308.114 15.5612 308.146 15.5346 308.146 15.4812L308.386 13.8972C308.386 13.8439 308.365 13.8172 308.322 13.8172H306.722C306.658 13.8172 306.626 13.8439 306.626 13.8972L306.386 15.4812C306.386 15.5346 306.408 15.5612 306.45 15.5612H308.05Z" fill="#F8F8F8"/>
<path d="M356.237 20.2812C356.13 20.2812 356.061 20.2279 356.029 20.1212L355.549 18.5532C355.527 18.5106 355.501 18.4892 355.469 18.4892H351.533C351.501 18.4892 351.474 18.5106 351.453 18.5532L350.989 20.1212C350.957 20.2279 350.887 20.2812 350.781 20.2812H348.749C348.685 20.2812 348.637 20.2652 348.605 20.2332C348.573 20.1906 348.567 20.1319 348.589 20.0572L352.045 9.24125C352.077 9.13458 352.146 9.08125 352.253 9.08125H354.765C354.871 9.08125 354.941 9.13458 354.973 9.24125L358.429 20.0572C358.439 20.0786 358.445 20.1052 358.445 20.1372C358.445 20.2332 358.386 20.2812 358.269 20.2812H356.237ZM352.029 16.6492C352.018 16.7132 352.039 16.7452 352.093 16.7452H354.909C354.973 16.7452 354.994 16.7132 354.973 16.6492L353.533 11.8972C353.522 11.8546 353.506 11.8386 353.485 11.8492C353.463 11.8492 353.447 11.8652 353.437 11.8972L352.029 16.6492ZM369.099 13.6252C369.099 13.6786 369.078 13.7266 369.035 13.7692C369.003 13.8012 368.96 13.8172 368.907 13.8172H367.707C367.643 13.8172 367.611 13.8439 367.611 13.8972L367.371 15.4812C367.371 15.5346 367.392 15.5612 367.435 15.5612H368.331C368.384 15.5612 368.427 15.5826 368.459 15.6252C368.502 15.6572 368.523 15.6999 368.523 15.7532V17.2892C368.523 17.3426 368.502 17.3906 368.459 17.4332C368.427 17.4652 368.384 17.4812 368.331 17.4812H367.147C367.083 17.4812 367.051 17.5079 367.051 17.5612L366.731 19.6732C366.72 19.7906 366.651 19.8492 366.523 19.8492H364.651C364.523 19.8492 364.464 19.7799 364.475 19.6412L364.795 17.5612C364.795 17.5079 364.774 17.4812 364.731 17.4812H363.131C363.067 17.4812 363.035 17.5079 363.035 17.5612L362.715 19.6732C362.704 19.7906 362.635 19.8492 362.507 19.8492H360.635C360.507 19.8492 360.448 19.7799 360.459 19.6412L360.779 17.5612C360.779 17.5079 360.758 17.4812 360.715 17.4812H359.819C359.766 17.4812 359.718 17.4652 359.675 17.4332C359.643 17.3906 359.627 17.3426 359.627 17.2892V15.7532C359.627 15.6999 359.643 15.6572 359.675 15.6252C359.718 15.5826 359.766 15.5612 359.819 15.5612H361.003C361.067 15.5612 361.099 15.5346 361.099 15.4812L361.339 13.8972C361.339 13.8439 361.318 13.8172 361.275 13.8172H360.411C360.358 13.8172 360.31 13.8012 360.267 13.7692C360.235 13.7266 360.219 13.6786 360.219 13.6252V12.0732C360.219 12.0199 360.235 11.9772 360.267 11.9452C360.31 11.9026 360.358 11.8812 360.411 11.8812H361.579C361.643 11.8812 361.675 11.8546 361.675 11.8012L361.995 9.68925C362.006 9.57192 362.075 9.51325 362.203 9.51325H364.075C364.203 9.51325 364.262 9.58258 364.251 9.72125L363.931 11.8012C363.931 11.8546 363.952 11.8812 363.995 11.8812H365.579C365.643 11.8812 365.675 11.8546 365.675 11.8012L365.995 9.68925C366.006 9.57192 366.075 9.51325 366.203 9.51325H368.075C368.203 9.51325 368.262 9.58258 368.251 9.72125L367.931 11.8012C367.931 11.8546 367.952 11.8812 367.995 11.8812H368.923C368.976 11.8812 369.019 11.9026 369.051 11.9452C369.094 11.9772 369.115 12.0199 369.115 12.0732L369.099 13.6252ZM365.019 15.5612C365.083 15.5612 365.115 15.5346 365.115 15.4812L365.355 13.8972C365.355 13.8439 365.334 13.8172 365.291 13.8172H363.691C363.627 13.8172 363.595 13.8439 363.595 13.8972L363.355 15.4812C363.355 15.5346 363.376 15.5612 363.419 15.5612H365.019Z" fill="#F8F8F8"/>
<rect x="59.0469" y="48.2812" width="54.2344" height="43.8047" rx="5" fill="#2E2E2E"/>
<path opacity="0.7" d="M86.575 84.3413C86.127 84.3413 85.727 84.2693 85.375 84.1252C85.031 83.9812 84.763 83.7892 84.571 83.5492C84.387 83.3092 84.295 83.0412 84.295 82.7452V82.6012C84.295 82.5212 84.335 82.4812 84.415 82.4812H84.991C85.071 82.4812 85.111 82.5212 85.111 82.6012V82.6973C85.111 82.9612 85.247 83.1932 85.519 83.3932C85.799 83.5852 86.147 83.6812 86.563 83.6812C86.979 83.6812 87.315 83.5892 87.571 83.4052C87.827 83.2132 87.955 82.9732 87.955 82.6852C87.955 82.4852 87.887 82.3212 87.751 82.1932C87.623 82.0652 87.467 81.9652 87.283 81.8932C87.107 81.8212 86.831 81.7292 86.455 81.6172C86.007 81.4892 85.639 81.3612 85.351 81.2332C85.063 81.1052 84.819 80.9292 84.619 80.7052C84.427 80.4732 84.331 80.1812 84.331 79.8292C84.331 79.3172 84.531 78.9092 84.931 78.6052C85.331 78.3012 85.859 78.1492 86.515 78.1492C86.955 78.1492 87.343 78.2212 87.679 78.3652C88.023 78.5092 88.287 78.7092 88.471 78.9652C88.655 79.2132 88.747 79.4932 88.747 79.8052V79.8412C88.747 79.9212 88.707 79.9612 88.627 79.9612H88.063C87.983 79.9612 87.943 79.9212 87.943 79.8412V79.8052C87.943 79.5332 87.811 79.3052 87.547 79.1212C87.291 78.9372 86.943 78.8452 86.503 78.8452C86.095 78.8452 85.767 78.9292 85.519 79.0972C85.271 79.2572 85.147 79.4812 85.147 79.7692C85.147 80.0412 85.267 80.2492 85.507 80.3932C85.747 80.5372 86.119 80.6812 86.623 80.8252C87.087 80.9612 87.463 81.0892 87.751 81.2092C88.039 81.3292 88.287 81.5052 88.495 81.7372C88.703 81.9612 88.807 82.2572 88.807 82.6252C88.807 83.1452 88.603 83.5612 88.195 83.8732C87.787 84.1852 87.247 84.3413 86.575 84.3413Z" fill="#F8F8F8"/>
<path d="M82.7344 68.2812C82.6811 68.2812 82.6331 68.2652 82.5904 68.2332C82.5584 68.1906 82.5424 68.1426 82.5424 68.0892V57.2732C82.5424 57.2199 82.5584 57.1772 82.5904 57.1452C82.6331 57.1026 82.6811 57.0812 82.7344 57.0812H86.7344C87.5344 57.0812 88.2331 57.2252 88.8304 57.5132C89.4384 57.7906 89.9077 58.1852 90.2384 58.6972C90.5691 59.2092 90.7344 59.8012 90.7344 60.4732V64.8892C90.7344 65.5612 90.5691 66.1532 90.2384 66.6652C89.9077 67.1772 89.4384 67.5772 88.8304 67.8652C88.2331 68.1426 87.5344 68.2812 86.7344 68.2812H82.7344ZM84.7984 66.2652C84.7984 66.3186 84.8251 66.3452 84.8784 66.3452H86.8144C87.3051 66.3452 87.6997 66.1799 87.9984 65.8492C88.3077 65.5186 88.4677 65.0759 88.4784 64.5212V60.8412C88.4784 60.2866 88.3237 59.8439 88.0144 59.5132C87.7157 59.1826 87.3104 59.0172 86.7984 59.0172H84.8784C84.8251 59.0172 84.7984 59.0439 84.7984 59.0972V66.2652Z" fill="#F8F8F8"/>
<rect x="117.453" y="48.2812" width="54.2344" height="43.8047" rx="5" fill="#2E2E2E"/>
<path opacity="0.7" d="M146.023 76.0012C146.023 75.9212 146.063 75.8812 146.143 75.8812H146.755C146.835 75.8812 146.875 75.9212 146.875 76.0012V84.1612C146.875 84.2412 146.835 84.2812 146.755 84.2812H146.143C146.063 84.2812 146.023 84.2412 146.023 84.1612V83.6572C146.023 83.6412 146.015 83.6332 145.999 83.6332C145.991 83.6252 145.979 83.6292 145.963 83.6452C145.787 83.8772 145.567 84.0572 145.303 84.1852C145.047 84.3133 144.759 84.3773 144.439 84.3773C143.879 84.3773 143.407 84.2332 143.023 83.9452C142.647 83.6572 142.387 83.2652 142.243 82.7692C142.131 82.4092 142.075 81.9012 142.075 81.2452C142.075 80.5812 142.123 80.0852 142.219 79.7572C142.363 79.2452 142.627 78.8452 143.011 78.5572C143.395 78.2612 143.871 78.1133 144.439 78.1133C144.751 78.1133 145.039 78.1772 145.303 78.3052C145.567 78.4252 145.787 78.6012 145.963 78.8332C145.979 78.8492 145.991 78.8572 145.999 78.8572C146.015 78.8492 146.023 78.8372 146.023 78.8212V76.0012ZM145.807 82.7092C145.879 82.5492 145.931 82.3612 145.963 82.1452C145.995 81.9292 146.011 81.6292 146.011 81.2452C146.011 80.8612 145.995 80.5612 145.963 80.3452C145.931 80.1212 145.875 79.9252 145.795 79.7572C145.699 79.4852 145.539 79.2692 145.315 79.1092C145.099 78.9412 144.839 78.8572 144.535 78.8572C144.215 78.8572 143.939 78.9372 143.707 79.0972C143.475 79.2572 143.307 79.4692 143.203 79.7332C143.107 79.9092 143.035 80.1092 142.987 80.3332C142.947 80.5492 142.927 80.8532 142.927 81.2452C142.927 81.6212 142.943 81.9172 142.975 82.1332C143.007 82.3412 143.063 82.5292 143.143 82.6973C143.239 82.9852 143.407 83.2132 143.647 83.3812C143.895 83.5492 144.187 83.6332 144.523 83.6332C144.843 83.6332 145.111 83.5492 145.327 83.3812C145.543 83.2132 145.703 82.9892 145.807 82.7092Z" fill="#F8F8F8"/>
<path d="M148.65 58.8252C148.65 58.8786 148.629 58.9266 148.586 58.9692C148.554 59.0012 148.512 59.0172 148.458 59.0172H143.21C143.157 59.0172 143.13 59.0439 143.13 59.0972V61.5772C143.13 61.6306 143.157 61.6572 143.21 61.6572H146.65C146.704 61.6572 146.746 61.6786 146.778 61.7212C146.821 61.7532 146.842 61.7959 146.842 61.8492V63.4012C146.842 63.4546 146.821 63.5026 146.778 63.5452C146.746 63.5772 146.704 63.5932 146.65 63.5932H143.21C143.157 63.5932 143.13 63.6199 143.13 63.6732V66.2652C143.13 66.3186 143.157 66.3452 143.21 66.3452H148.458C148.512 66.3452 148.554 66.3666 148.586 66.4092C148.629 66.4412 148.65 66.4839 148.65 66.5372V68.0892C148.65 68.1426 148.629 68.1906 148.586 68.2332C148.554 68.2652 148.512 68.2812 148.458 68.2812H141.066C141.013 68.2812 140.965 68.2652 140.922 68.2332C140.89 68.1906 140.874 68.1426 140.874 68.0892V57.2732C140.874 57.2199 140.89 57.1772 140.922 57.1452C140.965 57.1026 141.013 57.0812 141.066 57.0812H148.458C148.512 57.0812 148.554 57.1026 148.586 57.1452C148.629 57.1772 148.65 57.2199 148.65 57.2732V58.8252Z" fill="#F8F8F8"/>
<rect x="175.859" y="48.2812" width="54.2344" height="43.8047" rx="5" fill="#2E2E2E"/>
<path opacity="0.7" d="M204.198 76.6252C203.758 76.6252 203.458 76.7252 203.298 76.9252C203.138 77.1172 203.058 77.4492 203.058 77.9212V78.1612C203.058 78.1932 203.074 78.2092 203.106 78.2092H204.45C204.53 78.2092 204.57 78.2492 204.57 78.3292V78.8692C204.57 78.9492 204.53 78.9892 204.45 78.9892H203.106C203.074 78.9892 203.058 79.0052 203.058 79.0372V84.1612C203.058 84.2412 203.018 84.2812 202.938 84.2812H202.338C202.258 84.2812 202.218 84.2412 202.218 84.1612V79.0372C202.218 79.0052 202.202 78.9892 202.17 78.9892H201.366C201.286 78.9892 201.246 78.9492 201.246 78.8692V78.3292C201.246 78.2492 201.286 78.2092 201.366 78.2092H202.17C202.202 78.2092 202.218 78.1932 202.218 78.1612V77.8732C202.218 77.3772 202.274 76.9892 202.386 76.7092C202.498 76.4212 202.69 76.2132 202.962 76.0852C203.242 75.9492 203.63 75.8812 204.126 75.8812H204.474C204.554 75.8812 204.594 75.9212 204.594 76.0012V76.5052C204.594 76.5852 204.554 76.6252 204.474 76.6252H204.198Z" fill="#F8F8F8"/>
<path d="M207.236 58.8252C207.236 58.8786 207.215 58.9266 207.172 58.9692C207.14 59.0012 207.097 59.0172 207.044 59.0172H201.812C201.759 59.0172 201.732 59.0439 201.732 59.0972V61.5772C201.732 61.6306 201.759 61.6572 201.812 61.6572H205.252C205.305 61.6572 205.348 61.6786 205.38 61.7212C205.423 61.7532 205.444 61.7959 205.444 61.8492V63.4012C205.444 63.4546 205.423 63.5026 205.38 63.5452C205.348 63.5772 205.305 63.5932 205.252 63.5932H201.812C201.759 63.5932 201.732 63.6199 201.732 63.6732V68.0892C201.732 68.1426 201.711 68.1906 201.668 68.2332C201.636 68.2652 201.593 68.2812 201.54 68.2812H199.668C199.615 68.2812 199.567 68.2652 199.524 68.2332C199.492 68.1906 199.476 68.1426 199.476 68.0892V57.2732C199.476 57.2199 199.492 57.1772 199.524 57.1452C199.567 57.1026 199.615 57.0812 199.668 57.0812H207.044C207.097 57.0812 207.14 57.1026 207.172 57.1452C207.215 57.1772 207.236 57.2199 207.236 57.2732V58.8252Z" fill="#F8F8F8"/>
<rect x="234.266" y="48.2812" width="54.2344" height="43.8047" rx="5" fill="#2E2E2E"/>
<path opacity="0.7" d="M262.876 78.3292C262.876 78.2492 262.916 78.2092 262.996 78.2092H263.608C263.688 78.2092 263.728 78.2492 263.728 78.3292V84.0772C263.728 84.9733 263.468 85.6293 262.948 86.0452C262.436 86.4613 261.728 86.6693 260.824 86.6693C260.64 86.6693 260.5 86.6653 260.404 86.6573C260.324 86.6493 260.284 86.6053 260.284 86.5253L260.308 85.9733C260.308 85.9333 260.32 85.9013 260.344 85.8773C260.368 85.8613 260.396 85.8573 260.428 85.8652L260.752 85.8773C261.496 85.8773 262.036 85.7293 262.372 85.4333C262.708 85.1453 262.876 84.6853 262.876 84.0532V83.6092C262.876 83.5932 262.868 83.5852 262.852 83.5852C262.844 83.5772 262.832 83.5812 262.816 83.5972C262.448 84.0772 261.924 84.3173 261.244 84.3173C260.724 84.3173 260.26 84.1772 259.852 83.8972C259.452 83.6172 259.184 83.2212 259.048 82.7092C258.952 82.3812 258.904 81.8932 258.904 81.2452C258.904 80.8932 258.912 80.5972 258.928 80.3572C258.952 80.1172 258.996 79.9012 259.06 79.7092C259.204 79.2292 259.464 78.8452 259.84 78.5572C260.216 78.2612 260.668 78.1133 261.196 78.1133C261.908 78.1133 262.448 78.3492 262.816 78.8212C262.832 78.8372 262.844 78.8412 262.852 78.8332C262.868 78.8252 262.876 78.8132 262.876 78.7972V78.3292ZM262.816 82.4452C262.84 82.3252 262.856 82.1772 262.864 82.0012C262.872 81.8252 262.876 81.5692 262.876 81.2332C262.876 80.8252 262.872 80.5532 262.864 80.4172C262.856 80.2732 262.836 80.1412 262.804 80.0212C262.74 79.6852 262.58 79.4092 262.324 79.1932C262.076 78.9692 261.76 78.8572 261.376 78.8572C261 78.8572 260.68 78.9652 260.416 79.1812C260.16 79.3972 259.98 79.6772 259.876 80.0212C259.796 80.2772 259.756 80.6772 259.756 81.2212C259.756 81.8052 259.796 82.2092 259.876 82.4332C259.956 82.7692 260.128 83.0492 260.392 83.2732C260.664 83.4892 260.992 83.5972 261.376 83.5972C261.768 83.5972 262.088 83.4892 262.336 83.2732C262.592 83.0572 262.752 82.7812 262.816 82.4452Z" fill="#F8F8F8"/>
<path d="M261.396 68.4093C260.575 68.4093 259.85 68.2439 259.22 67.9132C258.591 67.5826 258.1 67.1239 257.748 66.5372C257.407 65.9399 257.236 65.2519 257.236 64.4732V60.8892C257.236 60.1106 257.407 59.4226 257.748 58.8252C258.1 58.2279 258.591 57.7692 259.22 57.4492C259.85 57.1186 260.575 56.9532 261.396 56.9532C262.207 56.9532 262.922 57.1132 263.54 57.4332C264.17 57.7532 264.655 58.1906 264.996 58.7452C265.348 59.2892 265.524 59.8972 265.524 60.5692V60.6812C265.524 60.7346 265.503 60.7826 265.46 60.8252C265.428 60.8572 265.386 60.8732 265.332 60.8732H263.46C263.407 60.8732 263.359 60.8572 263.316 60.8252C263.284 60.7826 263.268 60.7346 263.268 60.6812V60.6332C263.268 60.1426 263.098 59.7319 262.756 59.4012C262.415 59.0599 261.962 58.8892 261.396 58.8892C260.82 58.8892 260.356 59.0706 260.004 59.4332C259.663 59.7852 259.492 60.2492 259.492 60.8252V64.5372C259.492 65.1132 259.679 65.5826 260.052 65.9452C260.426 66.2972 260.9 66.4732 261.476 66.4732C262.031 66.4732 262.474 66.3292 262.804 66.0412C263.135 65.7426 263.3 65.3319 263.3 64.8092V64.0892C263.3 64.0359 263.274 64.0092 263.22 64.0092H261.428C261.375 64.0092 261.327 63.9932 261.284 63.9612C261.252 63.9186 261.236 63.8706 261.236 63.8172V62.3452C261.236 62.2919 261.252 62.2492 261.284 62.2172C261.327 62.1746 261.375 62.1532 261.428 62.1532H265.332C265.386 62.1532 265.428 62.1746 265.46 62.2172C265.503 62.2492 265.524 62.2919 265.524 62.3452V64.4572C265.524 65.2679 265.354 65.9719 265.012 66.5692C264.671 67.1666 264.186 67.6252 263.556 67.9452C262.938 68.2546 262.218 68.4093 261.396 68.4093Z" fill="#F8F8F8"/>
<rect x="292.672" y="48.2812" width="54.2344" height="43.8047" rx="5" fill="#2E2E2E"/>
<path opacity="0.7" d="M320.382 78.1252C321.022 78.1252 321.53 78.3132 321.906 78.6892C322.29 79.0652 322.482 79.5692 322.482 80.2012V84.1612C322.482 84.2412 322.442 84.2812 322.362 84.2812H321.75C321.67 84.2812 321.63 84.2412 321.63 84.1612V80.3692C321.63 79.9292 321.494 79.5692 321.222 79.2892C320.958 79.0092 320.614 78.8692 320.19 78.8692C319.75 78.8692 319.394 79.0052 319.122 79.2772C318.85 79.5492 318.714 79.9052 318.714 80.3452V84.1612C318.714 84.2412 318.674 84.2812 318.594 84.2812H317.982C317.902 84.2812 317.862 84.2412 317.862 84.1612V76.0012C317.862 75.9212 317.902 75.8812 317.982 75.8812H318.594C318.674 75.8812 318.714 75.9212 318.714 76.0012V78.8452C318.714 78.8612 318.718 78.8732 318.726 78.8812C318.742 78.8892 318.754 78.8852 318.762 78.8692C319.114 78.3732 319.654 78.1252 320.382 78.1252Z" fill="#F8F8F8"/>
<path d="M322.866 68.2812C322.759 68.2812 322.69 68.2279 322.658 68.1212L322.178 66.5532C322.156 66.5106 322.13 66.4892 322.098 66.4892H318.162C318.13 66.4892 318.103 66.5106 318.082 66.5532L317.618 68.1212C317.586 68.2279 317.516 68.2812 317.41 68.2812H315.378C315.314 68.2812 315.266 68.2652 315.234 68.2332C315.202 68.1906 315.196 68.1319 315.218 68.0572L318.674 57.2412C318.706 57.1346 318.775 57.0812 318.882 57.0812H321.394C321.5 57.0812 321.57 57.1346 321.602 57.2412L325.058 68.0572C325.068 68.0786 325.074 68.1052 325.074 68.1372C325.074 68.2332 325.015 68.2812 324.898 68.2812H322.866ZM318.658 64.6492C318.647 64.7132 318.668 64.7452 318.722 64.7452H321.538C321.602 64.7452 321.623 64.7132 321.602 64.6492L320.162 59.8972C320.151 59.8546 320.135 59.8386 320.114 59.8492C320.092 59.8492 320.076 59.8652 320.066 59.8972L318.658 64.6492Z" fill="#F8F8F8"/>
<rect x="351.078" y="48.2812" width="54.2344" height="43.8047" rx="5" fill="#2E2E2E"/>
<path opacity="0.7" d="M378.141 77.1052C377.941 77.1052 377.777 77.0412 377.649 76.9132C377.529 76.7852 377.469 76.6252 377.469 76.4332C377.469 76.2332 377.529 76.0732 377.649 75.9532C377.777 75.8252 377.941 75.7612 378.141 75.7612C378.333 75.7612 378.493 75.8252 378.621 75.9532C378.749 76.0732 378.813 76.2332 378.813 76.4332C378.813 76.6252 378.749 76.7852 378.621 76.9132C378.493 77.0412 378.333 77.1052 378.141 77.1052ZM376.425 86.7773C376.345 86.7773 376.305 86.7373 376.305 86.6573V86.1653C376.305 86.0853 376.345 86.0452 376.425 86.0452C377.281 86.0373 377.709 85.6253 377.709 84.8093V78.3292C377.709 78.2492 377.749 78.2092 377.829 78.2092H378.441C378.521 78.2092 378.561 78.2492 378.561 78.3292V84.8093C378.561 85.4893 378.393 85.9853 378.057 86.2973C377.721 86.6093 377.177 86.7693 376.425 86.7773Z" fill="#F8F8F8"/>
<path d="M380.85 62.4412C380.786 62.4732 380.786 62.5052 380.85 62.5372C381.864 63.0599 382.37 63.9292 382.37 65.1452C382.37 66.1799 382.018 66.9639 381.314 67.4972C380.61 68.0199 379.688 68.2812 378.546 68.2812H374.402C374.349 68.2812 374.301 68.2652 374.258 68.2332C374.226 68.1906 374.21 68.1426 374.21 68.0892V57.2732C374.21 57.2199 374.226 57.1772 374.258 57.1452C374.301 57.1026 374.349 57.0812 374.402 57.0812H378.418C380.946 57.0812 382.21 58.1052 382.21 60.1532C382.21 61.2199 381.757 61.9826 380.85 62.4412ZM376.546 59.0172C376.493 59.0172 376.466 59.0439 376.466 59.0972V61.5932C376.466 61.6466 376.493 61.6732 376.546 61.6732H378.418C378.92 61.6732 379.309 61.5559 379.586 61.3212C379.864 61.0866 380.002 60.7666 380.002 60.3612C380.002 59.9452 379.864 59.6199 379.586 59.3852C379.309 59.1399 378.92 59.0172 378.418 59.0172H376.546ZM378.546 66.3292C379.037 66.3292 379.421 66.2066 379.698 65.9612C379.976 65.7052 380.114 65.3586 380.114 64.9212C380.114 64.4839 379.976 64.1426 379.698 63.8972C379.421 63.6412 379.032 63.5132 378.53 63.5132H376.546C376.493 63.5132 376.466 63.5399 376.466 63.5932V66.2492C376.466 66.3026 376.493 66.3292 376.546 66.3292H378.546Z" fill="#F8F8F8"/>
<rect x="409.484" y="48.2812" width="54.2344" height="43.8047" rx="5" fill="#2E2E2E"/>
<path opacity="0.7" d="M435.023 84.2812C434.943 84.2812 434.903 84.2412 434.903 84.1612V76.0012C434.903 75.9212 434.943 75.8812 435.023 75.8812H435.635C435.715 75.8812 435.755 75.9212 435.755 76.0012V80.9092C435.755 80.9252 435.759 80.9372 435.767 80.9452C435.783 80.9532 435.799 80.9492 435.815 80.9332L438.359 78.2692C438.399 78.2292 438.447 78.2092 438.503 78.2092H439.223C439.271 78.2092 439.303 78.2252 439.319 78.2572C439.335 78.2892 439.327 78.3212 439.295 78.3532L437.759 80.0572C437.743 80.0732 437.739 80.0932 437.747 80.1172L439.583 84.1372L439.595 84.1852C439.595 84.2492 439.559 84.2812 439.487 84.2812H438.839C438.775 84.2812 438.731 84.2492 438.707 84.1852L437.159 80.6812C437.143 80.6492 437.123 80.6452 437.099 80.6692L435.779 82.0612C435.763 82.0772 435.755 82.0972 435.755 82.1212V84.1612C435.755 84.2412 435.715 84.2812 435.635 84.2812H435.023Z" fill="#F8F8F8"/>
<path d="M436.994 68.4093C436.162 68.4093 435.431 68.2492 434.802 67.9292C434.173 67.5986 433.687 67.1399 433.346 66.5532C433.005 65.9666 432.834 65.2892 432.834 64.5212V60.8252C432.834 60.0572 433.005 59.3799 433.346 58.7932C433.687 58.2066 434.173 57.7532 434.802 57.4332C435.431 57.1132 436.162 56.9532 436.994 56.9532C437.815 56.9532 438.535 57.1079 439.154 57.4172C439.783 57.7159 440.269 58.1479 440.61 58.7132C440.962 59.2679 441.138 59.9132 441.138 60.6492C441.138 60.7452 441.074 60.8039 440.946 60.8252L439.074 60.9372H439.042C438.935 60.9372 438.882 60.8786 438.882 60.7612C438.882 60.1959 438.706 59.7426 438.354 59.4012C438.013 59.0599 437.559 58.8892 436.994 58.8892C436.418 58.8892 435.954 59.0599 435.602 59.4012C435.261 59.7426 435.09 60.1959 435.09 60.7612V64.6172C435.09 65.1719 435.261 65.6199 435.602 65.9612C435.954 66.3026 436.418 66.4732 436.994 66.4732C437.559 66.4732 438.013 66.3026 438.354 65.9612C438.706 65.6199 438.882 65.1719 438.882 64.6172C438.882 64.4999 438.946 64.4412 439.074 64.4412L440.946 64.5212C440.999 64.5212 441.042 64.5372 441.074 64.5692C441.117 64.6012 441.138 64.6386 441.138 64.6812C441.138 65.4172 440.962 66.0679 440.61 66.6332C440.269 67.1986 439.783 67.6359 439.154 67.9452C438.535 68.2546 437.815 68.4093 436.994 68.4093Z" fill="#F8F8F8"/>
<rect x="467.891" y="48.2812" width="54.2344" height="43.8047" rx="5" fill="#2E2E2E"/>
<path opacity="0.7" d="M494.705 84.2812C494.625 84.2812 494.585 84.2412 494.585 84.1612V76.0012C494.585 75.9212 494.625 75.8812 494.705 75.8812H495.317C495.397 75.8812 495.437 75.9212 495.437 76.0012V84.1612C495.437 84.2412 495.397 84.2812 495.317 84.2812H494.705Z" fill="#F8F8F8"/>
<path d="M491.231 68.2812C491.177 68.2812 491.129 68.2652 491.087 68.2332C491.055 68.1906 491.039 68.1426 491.039 68.0892V57.2732C491.039 57.2199 491.055 57.1772 491.087 57.1452C491.129 57.1026 491.177 57.0812 491.231 57.0812H495.231C496.031 57.0812 496.729 57.2252 497.327 57.5132C497.935 57.7906 498.404 58.1852 498.735 58.6972C499.065 59.2092 499.231 59.8012 499.231 60.4732V64.8892C499.231 65.5612 499.065 66.1532 498.735 66.6652C498.404 67.1772 497.935 67.5772 497.327 67.8652C496.729 68.1426 496.031 68.2812 495.231 68.2812H491.231ZM493.295 66.2652C493.295 66.3186 493.321 66.3452 493.375 66.3452H495.311C495.801 66.3452 496.196 66.1799 496.495 65.8492C496.804 65.5186 496.964 65.0759 496.975 64.5212V60.8412C496.975 60.2866 496.82 59.8439 496.511 59.5132C496.212 59.1826 495.807 59.0172 495.295 59.0172H493.375C493.321 59.0172 493.295 59.0439 493.295 59.0972V66.2652Z" fill="#F8F8F8"/>
<rect x="525" y="48.2812" width="54.2344" height="43.8047" rx="5" fill="#2E2E2E"/>
<rect x="582" y="48.2812" width="54.2344" height="43.8047" rx="5" fill="#2E2E2E"/>
<path d="M610.427 78.2812C610.938 78.2812 611.3 78.78 611.142 79.2659L609.967 82.8792C609.887 83.1256 609.657 83.2924 609.398 83.2924V83.2924C609.011 83.2924 608.726 82.9316 608.816 82.5558L609.695 78.8593C609.775 78.5204 610.078 78.2812 610.427 78.2812V78.2812Z" fill="#F8F8F8"/>
<path d="M613.903 78.2812C614.414 78.2812 614.776 78.78 614.618 79.2659L613.443 82.8792C613.363 83.1256 613.133 83.2924 612.874 83.2924V83.2924C612.488 83.2924 612.203 82.9316 612.292 82.5558L613.171 78.8593C613.252 78.5204 613.555 78.2812 613.903 78.2812V78.2812Z" fill="#F8F8F8"/>
<path opacity="0.7" d="M549.814 80.1172C549.598 80.1172 549.418 80.0492 549.274 79.9132C549.138 79.7772 549.07 79.6052 549.07 79.3972C549.07 79.2052 549.146 79.0412 549.298 78.9052C549.45 78.7692 549.622 78.7012 549.814 78.7012C550.006 78.7012 550.178 78.7692 550.33 78.9052C550.49 79.0412 550.57 79.2052 550.57 79.3972C550.57 79.5972 550.494 79.7692 550.342 79.9132C550.198 80.0492 550.022 80.1172 549.814 80.1172ZM549.238 85.1813C549.198 85.1813 549.166 85.1653 549.142 85.1333C549.118 85.1093 549.11 85.0813 549.118 85.0493L549.454 82.5772C549.462 82.5052 549.502 82.4692 549.574 82.4692H550.126C550.166 82.4692 550.194 82.4812 550.21 82.5052C550.234 82.5292 550.242 82.5612 550.234 82.6012L549.742 85.0732C549.734 85.1453 549.69 85.1813 549.61 85.1813H549.238Z" fill="#F8F8F8"/>
<path d="M553.861 58.8252C553.861 58.8786 553.84 58.9266 553.797 58.9692C553.765 59.0012 553.723 59.0172 553.669 59.0172H548.421C548.368 59.0172 548.341 59.0439 548.341 59.0972V61.5772C548.341 61.6306 548.368 61.6572 548.421 61.6572H551.861C551.915 61.6572 551.957 61.6786 551.989 61.7212C552.032 61.7532 552.053 61.7959 552.053 61.8492V63.4012C552.053 63.4546 552.032 63.5026 551.989 63.5452C551.957 63.5772 551.915 63.5932 551.861 63.5932H548.421C548.368 63.5932 548.341 63.6199 548.341 63.6732V66.2652C548.341 66.3186 548.368 66.3452 548.421 66.3452H553.669C553.723 66.3452 553.765 66.3666 553.797 66.4092C553.84 66.4412 553.861 66.4839 553.861 66.5372V68.0892C553.861 68.1426 553.84 68.1906 553.797 68.2332C553.765 68.2652 553.723 68.2812 553.669 68.2812H546.277C546.224 68.2812 546.176 68.2652 546.133 68.2332C546.101 68.1906 546.085 68.1426 546.085 68.0892V57.2732C546.085 57.2199 546.101 57.1772 546.133 57.1452C546.176 57.1026 546.224 57.0812 546.277 57.0812H553.669C553.723 57.0812 553.765 57.1026 553.797 57.1452C553.84 57.1772 553.861 57.2199 553.861 57.2732V58.8252Z" fill="#F8F8F8"/>
<path d="M616.041 58.8252C616.041 58.8786 616.019 58.9266 615.977 58.9692C615.945 59.0012 615.902 59.0172 615.849 59.0172H610.617C610.563 59.0172 610.537 59.0439 610.537 59.0972V61.5772C610.537 61.6306 610.563 61.6572 610.617 61.6572H614.057C614.11 61.6572 614.153 61.6786 614.185 61.7212C614.227 61.7532 614.249 61.7959 614.249 61.8492V63.4012C614.249 63.4546 614.227 63.5026 614.185 63.5452C614.153 63.5772 614.11 63.5932 614.057 63.5932H610.617C610.563 63.5932 610.537 63.6199 610.537 63.6732V68.0892C610.537 68.1426 610.515 68.1906 610.473 68.2332C610.441 68.2652 610.398 68.2812 610.345 68.2812H608.473C608.419 68.2812 608.371 68.2652 608.329 68.2332C608.297 68.1906 608.281 68.1426 608.281 68.0892V57.2732C608.281 57.2199 608.297 57.1772 608.329 57.1452C608.371 57.1026 608.419 57.0812 608.473 57.0812H615.849C615.902 57.0812 615.945 57.1026 615.977 57.1452C616.019 57.1772 616.041 57.2199 616.041 57.2732V58.8252Z" fill="#F8F8F8"/>
</svg>
